# Blender 3.6.3
# www.blender.org
mtllib smallRock.mtl
o 棱角球
v -0.000071 -0.072587 -0.000145
v 0.059614 -0.042535 0.059490
v -0.059757 -0.042541 0.059493
v -0.059732 -0.042562 -0.059773
v 0.059667 -0.042557 -0.059792
v 0.059312 0.042392 0.059457
v -0.059592 0.042297 0.059253
v -0.059733 0.042422 -0.059811
v 0.059473 0.042462 -0.059836
v -0.000071 0.071933 -0.000145
vn 0.4494 -0.8933 0.0004
vn -0.4496 -0.8932 0.0001
vn -0.0000 -0.8932 -0.4497
vn -0.0008 0.0016 1.0000
vn -0.0002 -0.0005 -1.0000
vn 0.4445 0.8958 0.0011
vn 1.0000 0.0029 0.0009
vn 0.0001 -0.8930 0.4500
vn -0.0015 0.8954 0.4453
vn -0.4445 0.8958 0.0015
vn -0.0004 0.8965 -0.4430
vn -1.0000 0.0010 0.0005
vt 0.272728 0.157461
vt 0.363637 0.000000
vt 0.454546 0.157461
vt 0.727273 0.000000
vt 0.818182 0.157461
vt 0.636364 0.157461
vt 0.545455 0.000000
vt 0.000000 0.000000
vt 0.181819 0.314921
vt 0.909091 0.314921
vt 0.727273 0.314921
vt 0.545455 0.314921
vt 0.090910 0.472382
vt 0.000000 0.314921
vt 0.818182 0.472382
vt 0.636364 0.472382
s 0
f 2/1/1 1/2/1 5/3/1
f 1/4/2 3/5/2 4/6/2
f 1/7/3 4/6/3 5/3/3
f 2/8/4 6/9/4 7/10/4 3/5/4
f 4/6/5 8/11/5 9/12/5 5/3/5
f 6/9/6 9/12/6 10/13/6
f 5/3/7 9/12/7 6/9/7 2/8/7
f 1/4/8 2/8/8 3/5/8
f 7/14/9 6/9/9 10/13/9
f 8/11/10 7/10/10 10/15/10
f 9/12/11 8/11/11 10/16/11
f 3/5/12 7/10/12 8/11/12 4/6/12
